# xmcd
#
# Track frame offsets: 
#        150
#        21397
#        40025
#        139025
#
# Disc length: 2130 seconds
#
# Revision: 1
# Processed by: cddbd v1.5.2PL0 Copyright (c) Steve Scherf et al.
# Submitted via: ExactAudioCopyFreeDBPlugin 1.0
#
DISCID=2d085004
DTITLE=凸レーション - THE IDOLM@STER CINDERELLA GIRLS ANIMATION PROJECT 05 L
DTITLE=ET'S GO HAPPY!!
DYEAR=2015
DGENRE=JPOP
TTITLE0=LET'S GO HAPPY!!
TTITLE1=夕映えプレゼント -凸レーション リミックス-
TTITLE2=ボーナスドラマ「マジックアワー 凸レーション特別編」
TTITLE3=off vocal - LET'S GO HAPPY!! オリジナル・カラオケ
EXTD=
EXTT0=
EXTT1=
EXTT2=
EXTT3=
PLAYORDER=
